<?xml version="1.0" encoding="UTF-8"?>
<!DOCTYPE svg PUBLIC "-//W3C//DTD SVG 1.1//EN" "http://www.w3.org/Graphics/SVG/1.1/DTD/svg11.dtd">
<!-- Creator: CorelDRAW -->
<svg xmlns="http://www.w3.org/2000/svg" xml:space="preserve" width="233.644mm" height="52.2497mm" version="1.1" style="shape-rendering:geometricPrecision; text-rendering:geometricPrecision; image-rendering:optimizeQuality; fill-rule:evenodd; clip-rule:evenodd"
viewBox="0 0 23355.94 5223.08"
 xmlns:xlink="http://www.w3.org/1999/xlink"
 xmlns:xodm="http://www.corel.com/coreldraw/odm/2003">
 <defs>
  <style type="text/css">
   <![CDATA[
    .fil0 {fill:white}
    .fil1 {fill:url(#id0)}
   ]]>
  </style>
  <linearGradient id="id0" gradientUnits="userSpaceOnUse" x1="9629.9" y1="343.14" x2="13451.05" y2="4919.64">
   <stop offset="0" style="stop-opacity:1; stop-color:#00CCCC"/>
   <stop offset="0.458824" style="stop-opacity:1; stop-color:#7FDC78"/>
   <stop offset="1" style="stop-opacity:1; stop-color:#FFED24"/>
  </linearGradient>
 </defs>
 <g id="Camada_x0020_1">
  <metadata id="CorelCorpID_0Corel-Layer"/>
  <g id="_2027037233088">
   <path class="fil0" d="M17499.17 1346.7l0 1081.72 1135.12 0 0 645.17 -1135.12 0 0 1087.11 1135.12 0 0 645.17 -1780.29 0 0 -4104.32 1780.29 0 0 645.17 -1135.12 0zm2833.5 2350.94l-577.37 0 -252.85 1108.22 -665.11 0 946.73 -4104.32 514.28 0 957.86 4104.32 -670.71 0 -252.84 -1108.22zm-426.88 -645.17l276.37 0 -138.18 -595.48 -138.19 595.48zm1513.84 1753.39l0 -4104.32 860.55 0c762.93,0 1075.75,499.37 1075.75,1215.61l0 1667.72c0,715.13 -312.15,1221 -1075.75,1221l-860.55 0zm645.17 -3459.16l0 2813.99 215.38 0c102.79,0 217.75,-9.14 295.76,-82.51 112.67,-112.71 129.43,-343.88 129.43,-493.32l0 -1667.72c0,-149.42 -16.76,-380.61 -129.43,-493.3 -77.32,-72.74 -194.58,-77.14 -295.76,-77.14l-215.38 0z"/>
   <polygon class="fil0" points="15951.2,2428.42 15951.2,701.54 16601.76,701.54 16601.76,4805.86 15951.2,4805.86 15951.2,3078.98 15326.76,3078.98 15326.76,4805.86 14681.59,4805.86 14681.59,701.54 15326.76,701.54 15326.76,2428.42 "/>
  </g>
  <g id="_2027037231696">
   <g>
    <path class="fil0" d="M1630.27 1027.79c199.57,228.31 247.46,564.6 247.46,857.08 0,298.38 -49.34,620.02 -243.7,857.88 -1.99,3.15 -4.15,6.29 -6.45,9.4 3.4,5.11 6.51,10.41 9.24,15.95 192.03,237.5 240.91,557.48 240.91,854.42 0,292.67 -47.95,629.21 -247.85,857.53 -198.13,243.56 -491.05,326.11 -795.91,326.11l-833.97 0 0 -4104.92 833.97 0c303.73,0 601.67,79.48 796.3,326.55zm392.5 867.86c0,-298 53.12,-619.57 240.7,-860.72l0.88 -1.15 0.94 -1.1c78.86,-93.21 170.92,-167.56 278.15,-226.06l2.22 -1.16c154.61,-77.31 316.17,-109.61 488.6,-109.61 299.2,0 583,97.62 770.78,339.08 187.57,241.15 240.71,562.72 240.71,860.72l0 1705.36c0,297.98 -53.15,619.56 -240.71,860.71 -187.78,241.45 -471.58,339.07 -770.78,339.07 -296.25,0 -584.7,-99.8 -770.79,-339.07 -187.57,-241.15 -240.7,-562.73 -240.7,-860.71l0 -1705.36zm-1376.99 -548.63l0 1081.1 188.19 0c58.2,0 161.32,-5.27 213.43,-34.22 13.9,-7.73 68.28,-37.11 76.17,-50.11l2.69 -4.48 3.31 -4.03c86.75,-105.33 96.99,-321.11 96.99,-450.41 0,-136.56 -9.32,-358.76 -108.62,-466.88 -74.09,-67.92 -189.18,-70.97 -283.98,-70.97l-188.19 0zm0 1726.88l0 1086.49 188.19 0c97.05,0 210.77,-3.08 284.01,-76.32 99.91,-99.91 108.59,-331.26 108.59,-461.54 0,-140.29 -12.11,-366.83 -114,-477.65 -74.24,-68.15 -183.32,-70.97 -278.6,-70.97l-188.19 0zm2022.77 527.11c0,143.99 12.93,388.03 135.88,489.28 68.46,56.38 144.59,64.73 229.84,64.73 82,0 164.25,-10.7 229.83,-64.72 122.96,-101.26 135.88,-345.3 135.88,-489.29l0 -1705.36c0,-140.55 -15.91,-390.49 -135.88,-489.28 -66.45,-54.73 -147.8,-59.35 -229.83,-59.35 -84.88,0 -160.85,2.53 -229.85,59.35 -119.97,98.78 -135.87,348.73 -135.87,489.28l0 1705.36z"/>
    <path class="fil0" d="M4243.39 4806.16l0 -4104.92 860.86 0c763.09,0 1076.05,499.5 1076.05,1215.91l0 1667.72c0,715.31 -312.29,1221.3 -1076.05,1221.3l-860.86 0zm645.78 -3459.15l0 2813.37 215.08 0c102.7,0 217.61,-9.11 295.54,-82.43 112.59,-112.62 129.34,-343.76 129.34,-493.09l0 -1667.72c0,-149.32 -16.75,-380.47 -129.34,-493.08 -77.25,-72.67 -194.45,-77.05 -295.54,-77.05l-215.08 0z"/>
   </g>
   <polygon class="fil0" points="7511.57,2322.47 8277.09,701.24 9018.33,701.24 7834.24,3076.97 7834.24,4806.16 7188.47,4806.16 7188.47,3076.88 6010.03,701.24 6751.14,701.24 "/>
  </g>
  <path class="fil1" d="M10772.27 4012.84c72.58,-70.08 143.15,-142.77 209.2,-218.85 12.01,-16.61 23.83,-33.38 35.47,-50.25 240.33,-349.02 249.19,-440.79 130.01,-845.19 -50.84,-172.58 -74.94,-303.27 -192.36,-447.22 -56.36,-69.11 -112.3,-139.06 -160.55,-214.18 -49.79,-77.5 -89.21,-158.18 -124.23,-243.27 -41.34,-100.51 -74.99,-204.31 -96.07,-310.99 -16.76,-84.88 -35.39,-186.43 -36.43,-272.59 -0.41,-32.34 -3.76,-64.47 -3.57,-96.83 0.54,-109.28 0.19,-218.59 0.07,-327.87 -76.82,17.65 -153.64,35.29 -229.8,55.65l92.67 560.79c8.2,49.56 21.24,95.61 21.24,146.48l0 48.42 -48.25 4.02c-58.15,4.86 -120.31,20.82 -178.36,30.53 -59.89,10.01 -119.64,20.54 -179.52,30.53 -59.88,9.99 -119.65,20.6 -179.53,30.55 -30.38,5.05 -60.67,10.71 -91.04,15.77 -31.63,5.29 -66.19,14.41 -98.14,14.41l-51.47 0 -1.15 -51.46c-0.29,-13.28 -5.86,-32.34 -8.2,-45.94l-63.7 -370.43c-13.62,-69.56 -24.74,-140.21 -36.89,-210.66l-73.12 -424.31c-18.64,-108.31 -38.6,-216.48 -57.62,-324.74 -11.88,-67.52 -23.68,-135.03 -34.99,-202.63 -5.4,-32.26 -15.85,-80.47 -16.57,-112.6l-1.22 -53.8 53.83 0c23.95,0 55.98,-6.52 79.75,-10.83 30.86,-5.62 61.66,-12.21 92.58,-17.39l359.55 -60.54c29.5,-4.97 59.01,-9.84 88.54,-14.73 33.68,-5.6 92.44,-25.87 123.47,-13.91 47.14,18.16 45.14,76.4 51.88,117.92l43.11 266.4c9.74,60.22 19.83,120.38 29.47,180.63 6.36,39.66 16.37,81.09 22.58,122.18 232.29,-67.32 471.04,-108.66 710.12,-143.37 70.56,-10.26 141.08,-20.24 212.31,-24.62 16.89,-1.03 33.94,-2.2 50.71,-4.38 50.42,-6.54 103.17,-9.04 153.99,-11.93 33.6,-1.9 77.02,-1.92 109.66,-6.88l2.51 -0.36 112.08 -6.14c38.51,-1.14 76.96,0.73 115.44,0.25 18.54,-0.23 36.37,-3.88 55.69,-3.88l114.41 -0.08c18,0 34.34,3.92 51.44,3.95 39.05,0.04 78.1,-2.18 117.15,-0.08 17.59,0.94 34.39,3.73 52.14,3.64l1.38 -0.02 160.5 7.69 0.82 0.06c182.05,14.58 363.52,33.26 544.03,61.14 179.96,27.77 357.4,64.7 534.05,108.81 11.19,2.81 23.95,7.05 36.57,11.11l19.61 -118.94c14.64,-88.71 30.57,-177.3 45.5,-265.96 9.16,-54.23 18.2,-108.5 26.7,-162.83 3.96,-25.43 11.08,-60.76 11.86,-86.07l0 -57 56.99 4.74c17.51,1.45 34.45,5.54 51.72,8.44l501.67 84.23c30.98,5.2 61.96,11.57 92.93,17.07 23.46,4.15 59.24,11.69 82.58,11.69l57.2 0 -4.74 57c-2.28,27.18 -7.97,56.78 -12.49,83.76 -7.42,44.14 -15.21,88.28 -23.08,132.33 -12.66,70.76 -26.28,141.65 -38.21,212.5 -23.86,141.73 -48.21,283.41 -72.64,425.05l-110.01 638c-6.13,35.5 -12.49,70.97 -18.38,106.54 -2.96,17.9 -5.96,35.79 -8.95,53.69 -2.21,13.23 -6.89,30.56 -7.17,43.6l-1.14 51.45 -51.49 0c-57.76,0 -133.54,-21.35 -191.98,-31.86 -91.07,-16.37 -182.04,-34.17 -273.05,-51.03 -57.45,-10.64 -114.92,-21.22 -172.48,-31.38 -27.56,-4.87 -62.61,-12.61 -90.27,-14.74l-64.06 -1.42 14.68 -63.1c6.91,-29.71 10.73,-60.61 15.63,-90.74l76.85 -472.2c5.13,-31.69 10.52,-63.34 15.84,-95.01 2.34,-13.93 5.47,-29.18 7.91,-44.4l-214.68 -48.79c1.75,195.06 8.91,392.34 -20.99,585.31 -40.75,263.22 -115.08,474.8 -266.13,695.7 -31.24,45.66 -63.39,90.84 -94.17,136.73 -17.64,26.35 -35,53.35 -48.31,82.19 -32.63,70.74 -50,175.6 -66.28,251.76 -14.57,68.19 -81.45,225.97 -73.07,293.24 18.35,17.77 112.28,48.92 133.4,56.35 99.75,35.08 194.17,71.85 285.43,126.32 297.08,177.41 427.18,463.12 458.83,800.05 30.34,322.68 -58.87,626.91 -292.07,856.47 -225.7,222.18 -539.86,328.69 -851.16,348.67 -526.31,33.77 -1029.73,-110.3 -1480.3,-376.48 -91.26,72.11 -184.5,141.89 -280.28,207.81l-14.04 9.67 -1010.4 -23.95 11.85 -8.45 -12.57 0.12 246.97 -167.65c202.84,-146.46 403.89,-297.56 598.81,-455.67 -288.24,-424.3 -350.02,-866.63 -300.05,-1375.56l5.29 -53.93 549.17 70.11 7.48 3.54c51.69,24.3 40.8,90.37 37.13,135.73 -24.74,306.8 -30.67,574.36 146.96,829.32zm1037.46 -2001.63c-266.16,0 -481.92,-215.78 -481.92,-481.95 0,-266.14 215.77,-481.93 481.92,-481.93 266.13,0 481.94,215.78 481.94,481.93 0,266.16 -215.79,481.95 -481.94,481.95zm-581.96 2462.63c226.87,169.93 690.91,236.8 952.98,200.7 213.93,-29.49 403.69,-159.79 493.55,-358.2 94.49,-208.64 15.27,-440.01 -189.49,-542.43 -112.02,-56.03 -239.61,-60.78 -359.73,-30.41 -175.39,44.35 -330.91,159.52 -455.29,287.31 -145.54,149.59 -295.18,294.85 -442.03,443.04zm-92.72 -3584.09c-0.99,12.63 -2.25,25.15 -2.29,37.25 -1.1,334.62 -23.17,611.96 126.88,924.09 62.67,130.34 156.02,253.75 280.63,330.33 126.7,77.88 266.28,95.33 410.33,58.83 376.88,-95.43 520.31,-531.18 544.67,-876.52 11.14,-157.68 -3.73,-315.91 3.17,-473.58 -10.1,-1.29 -20.13,-2.66 -30.1,-3.76l-274.07 -25.01 -714.77 -1.97c-14.76,1.86 -27.78,1.59 -42.62,1.94l-301.83 28.41z"/>
 </g>
</svg>
