<?xml version="1.0" encoding="UTF-8"?>
<!DOCTYPE svg PUBLIC "-//W3C//DTD SVG 1.1//EN" "http://www.w3.org/Graphics/SVG/1.1/DTD/svg11.dtd">
<!-- Creator: CorelDRAW -->
<svg xmlns="http://www.w3.org/2000/svg" xml:space="preserve" width="114.734mm" height="86.3312mm" version="1.1" style="shape-rendering:geometricPrecision; text-rendering:geometricPrecision; image-rendering:optimizeQuality; fill-rule:evenodd; clip-rule:evenodd"
viewBox="0 0 504.32 379.48"
 xmlns:xlink="http://www.w3.org/1999/xlink"
 xmlns:xodm="http://www.corel.com/coreldraw/odm/2003">
 <defs>
  <style type="text/css">
   <![CDATA[
    .fil0 {fill:white}
    .fil1 {fill:url(#id0)}
   ]]>
  </style>
  <linearGradient id="id0" gradientUnits="userSpaceOnUse" x1="367.7" y1="42.26" x2="478.9" y2="175.45">
   <stop offset="0" style="stop-opacity:1; stop-color:#00CCCC"/>
   <stop offset="0.458824" style="stop-opacity:1; stop-color:#7FDC78"/>
   <stop offset="1" style="stop-opacity:1; stop-color:#FFED24"/>
  </linearGradient>
 </defs>
 <g id="Camada_x0020_1">
  <metadata id="CorelCorpID_0Corel-Layer"/>
  <g id="_2027080119744">
   <path class="fil0" d="M185.34 227.37l0 47.57 49.91 0 0 28.37 -49.91 0 0 47.8 49.91 0 0 28.37 -78.28 0 0 -180.48 78.28 0 0 28.37 -49.91 0zm124.59 103.38l-25.39 0 -11.12 48.73 -29.25 0 41.63 -180.48 22.61 0 42.12 180.48 -29.49 0 -11.12 -48.73zm-18.77 -28.37l12.15 0 -6.08 -26.18 -6.08 26.18zm66.57 77.1l0 -180.48 37.84 0c33.55,0 47.3,21.96 47.3,53.45l0 73.33c0,31.45 -13.73,53.69 -47.3,53.69l-37.84 0zm28.37 -152.11l0 123.74 9.47 0c4.52,0 9.57,-0.4 13.01,-3.63 4.95,-4.96 5.69,-15.12 5.69,-21.69l0 -73.33c0,-6.57 -0.74,-16.74 -5.69,-21.69 -3.4,-3.2 -8.56,-3.39 -13.01,-3.39l-9.47 0z"/>
   <polygon class="fil0" points="117.28,274.94 117.28,199 145.88,199 145.88,379.48 117.28,379.48 117.28,303.54 89.82,303.54 89.82,379.48 61.45,379.48 61.45,199 89.82,199 89.82,274.94 "/>
  </g>
  <g id="_2027080120512">
   <g>
    <g>
     <path class="fil0" d="M71.69 14.6c8.78,10.04 10.88,24.83 10.88,37.69 0,13.12 -2.17,27.26 -10.72,37.72 -0.09,0.14 -0.18,0.28 -0.28,0.41 0.15,0.22 0.29,0.46 0.41,0.7 8.44,10.44 10.59,24.51 10.59,37.57 0,12.87 -2.11,27.67 -10.9,37.71 -8.71,10.71 -21.59,14.34 -35,14.34l-36.67 0 0 -180.5 36.67 0c13.36,0 26.46,3.49 35.01,14.36zm17.26 38.16c0,-13.1 2.34,-27.24 10.58,-37.85l0.04 -0.05 0.04 -0.05c3.47,-4.1 7.52,-7.37 12.23,-9.94l0.1 -0.05c6.8,-3.4 13.9,-4.82 21.48,-4.82 13.16,0 25.64,4.29 33.89,14.91 8.25,10.6 10.58,24.74 10.58,37.85l0 74.99c0,13.1 -2.34,27.24 -10.58,37.85 -8.26,10.62 -20.74,14.91 -33.89,14.91 -13.03,0 -25.71,-4.39 -33.89,-14.91 -8.25,-10.6 -10.58,-24.74 -10.58,-37.85l0 -74.99zm-60.55 -24.12l0 47.54 8.28 0c2.56,0 7.09,-0.23 9.39,-1.5 0.61,-0.34 3,-1.63 3.35,-2.2l0.12 -0.2 0.15 -0.18c3.81,-4.63 4.27,-14.12 4.27,-19.81 0,-6 -0.41,-15.78 -4.78,-20.53 -3.26,-2.99 -8.32,-3.12 -12.49,-3.12l-8.28 0zm0 75.93l0 47.77 8.28 0c4.27,0 9.27,-0.14 12.49,-3.36 4.39,-4.39 4.77,-14.57 4.77,-20.29 0,-6.17 -0.53,-16.13 -5.01,-21 -3.26,-3 -8.06,-3.12 -12.25,-3.12l-8.28 0zm88.94 23.18c0,6.33 0.57,17.06 5.97,21.51 3.01,2.48 6.36,2.85 10.11,2.85 3.61,0 7.22,-0.47 10.11,-2.85 5.41,-4.45 5.97,-15.18 5.97,-21.52l0 -74.99c0,-6.18 -0.7,-17.17 -5.97,-21.51 -2.92,-2.41 -6.5,-2.61 -10.11,-2.61 -3.73,0 -7.07,0.11 -10.11,2.61 -5.28,4.34 -5.97,15.33 -5.97,21.51l0 74.99z"/>
     <path class="fil0" d="M186.59 180.74l0 -180.5 37.85 0c33.55,0 47.32,21.96 47.32,53.47l0 73.33c0,31.45 -13.73,53.7 -47.32,53.7l-37.85 0zm28.4 -152.11l0 123.71 9.46 0c4.52,0 9.57,-0.4 13,-3.62 4.95,-4.95 5.69,-15.12 5.69,-21.68l0 -73.33c0,-6.57 -0.74,-16.73 -5.69,-21.68 -3.4,-3.2 -8.55,-3.39 -13,-3.39l-9.46 0z"/>
    </g>
    <path class="fil0" d="M330.3 71.53l33.66 -71.29 32.59 0 -12.82 25.71c-2.77,-1.05 -4.63,-0.44 -7.24,0.05 -0.85,0.14 -1.71,0.28 -2.58,0.43l-10.46 1.76c-0.93,0.16 -1.86,0.35 -2.79,0.52 -0.37,0.07 -0.79,0.16 -1.16,0.2l-8.66 0 0.2 8.76c0.03,1.47 0.34,2.84 0.58,4.28 0.33,1.99 0.68,3.97 1.03,5.95 0.55,3.14 1.13,6.28 1.67,9.43l2.13 12.35c0.36,2.07 0.69,4.14 1.09,6.21l0.34 1.96 -13.39 26.86 0 76.04 -28.4 0 0 -76.04 -51.82 -104.46 32.59 0 33.44 71.29z"/>
   </g>
   <path class="fil1" d="M400.94 149.06c2.11,-2.04 4.17,-4.15 6.09,-6.37 0.35,-0.48 0.69,-0.97 1.03,-1.46 6.99,-10.16 7.25,-12.83 3.78,-24.6 -1.48,-5.02 -2.18,-8.83 -5.6,-13.01 -1.64,-2.01 -3.27,-4.05 -4.67,-6.23 -1.45,-2.26 -2.6,-4.6 -3.61,-7.08 -1.2,-2.93 -2.18,-5.95 -2.8,-9.05 -0.49,-2.47 -1.03,-5.43 -1.06,-7.93 -0.01,-0.94 -0.11,-1.88 -0.1,-2.82 0.02,-3.18 0.01,-6.36 0,-9.54 -2.24,0.51 -4.47,1.03 -6.69,1.62l2.7 16.32c0.24,1.44 0.62,2.78 0.62,4.26l0 1.41 -1.4 0.12c-1.69,0.14 -3.5,0.61 -5.19,0.89 -1.74,0.29 -3.48,0.6 -5.22,0.89 -1.74,0.29 -3.48,0.6 -5.23,0.89 -0.88,0.15 -1.77,0.31 -2.65,0.46 -0.92,0.15 -1.93,0.42 -2.86,0.42l-1.5 0 -0.03 -1.5c-0.01,-0.39 -0.17,-0.94 -0.24,-1.34l-1.85 -10.78c-0.4,-2.02 -0.72,-4.08 -1.07,-6.13l-2.13 -12.35c-0.54,-3.15 -1.12,-6.3 -1.68,-9.45 -0.35,-1.96 -0.69,-3.93 -1.02,-5.9 -0.16,-0.94 -0.46,-2.34 -0.48,-3.28l-0.04 -1.57 1.57 0c0.7,0 1.63,-0.19 2.32,-0.31 0.9,-0.16 1.79,-0.36 2.69,-0.51l10.46 -1.76c0.86,-0.14 1.72,-0.29 2.58,-0.43 0.98,-0.16 2.69,-0.75 3.59,-0.41 1.37,0.53 1.31,2.22 1.51,3.43l1.25 7.75c0.28,1.75 0.58,3.5 0.86,5.26 0.19,1.15 0.48,2.36 0.66,3.56 6.76,-1.96 13.71,-3.16 20.67,-4.17 2.05,-0.3 4.11,-0.59 6.18,-0.72 0.49,-0.03 0.99,-0.06 1.48,-0.13 1.47,-0.19 3,-0.26 4.48,-0.35 0.98,-0.06 2.24,-0.06 3.19,-0.2l0.07 -0.01 3.26 -0.18c1.12,-0.03 2.24,0.02 3.36,0.01 0.54,-0.01 1.06,-0.11 1.62,-0.11l3.33 -0c0.52,0 1,0.11 1.5,0.12 1.14,0 2.27,-0.06 3.41,-0 0.51,0.03 1,0.11 1.52,0.11l0.04 -0 4.67 0.22 0.02 0c5.3,0.42 10.58,0.97 15.83,1.78 5.24,0.81 10.4,1.88 15.54,3.17 0.33,0.08 0.7,0.2 1.06,0.32l0.57 -3.46c0.43,-2.58 0.89,-5.16 1.32,-7.74 0.27,-1.58 0.53,-3.16 0.78,-4.74 0.12,-0.74 0.32,-1.77 0.35,-2.5l0 -1.66 1.66 0.14c0.51,0.04 1,0.16 1.51,0.25l14.6 2.45c0.9,0.15 1.8,0.34 2.7,0.5 0.68,0.12 1.72,0.34 2.4,0.34l1.66 0 -0.14 1.66c-0.07,0.79 -0.23,1.65 -0.36,2.44 -0.22,1.28 -0.44,2.57 -0.67,3.85 -0.37,2.06 -0.76,4.12 -1.11,6.18 -0.69,4.12 -1.4,8.25 -2.11,12.37l-3.2 18.57c-0.18,1.03 -0.36,2.07 -0.53,3.1 -0.09,0.52 -0.17,1.04 -0.26,1.56 -0.06,0.38 -0.2,0.89 -0.21,1.27l-0.03 1.5 -1.5 0c-1.68,0 -3.89,-0.62 -5.59,-0.93 -2.65,-0.48 -5.3,-0.99 -7.95,-1.49 -1.67,-0.31 -3.34,-0.62 -5.02,-0.91 -0.8,-0.14 -1.82,-0.37 -2.63,-0.43l-1.86 -0.04 0.43 -1.84c0.2,-0.86 0.31,-1.76 0.45,-2.64l2.24 -13.74c0.15,-0.92 0.31,-1.84 0.46,-2.77 0.07,-0.41 0.16,-0.85 0.23,-1.29l-6.25 -1.42c0.05,5.68 0.26,11.42 -0.61,17.03 -1.19,7.66 -3.35,13.82 -7.75,20.25 -0.91,1.33 -1.84,2.64 -2.74,3.98 -0.51,0.77 -1.02,1.55 -1.41,2.39 -0.95,2.06 -1.45,5.11 -1.93,7.33 -0.42,1.98 -2.37,6.58 -2.13,8.53 0.53,0.52 3.27,1.42 3.88,1.64 2.9,1.02 5.65,2.09 8.31,3.68 8.65,5.16 12.43,13.48 13.35,23.28 0.88,9.39 -1.71,18.24 -8.5,24.93 -6.57,6.47 -15.71,9.57 -24.77,10.15 -15.32,0.98 -29.97,-3.21 -43.08,-10.96 -2.66,2.1 -5.37,4.13 -8.16,6.05l-0.41 0.28 -29.4 -0.7 0.34 -0.25 -0.37 0 7.19 -4.88c5.9,-4.26 11.75,-8.66 17.43,-13.26 -8.39,-12.35 -10.19,-25.22 -8.73,-40.03l0.15 -1.57 15.98 2.04 0.22 0.1c1.5,0.71 1.19,2.63 1.08,3.95 -0.72,8.93 -0.89,16.71 4.28,24.13zm30.19 -58.25c-7.75,0 -14.02,-6.28 -14.02,-14.03 0,-7.75 6.28,-14.03 14.02,-14.03 7.75,0 14.03,6.28 14.03,14.03 0,7.75 -6.28,14.03 -14.03,14.03zm-16.94 71.67c6.6,4.95 20.11,6.89 27.73,5.84 6.23,-0.86 11.75,-4.65 14.36,-10.42 2.75,-6.07 0.44,-12.81 -5.51,-15.79 -3.26,-1.63 -6.97,-1.77 -10.47,-0.88 -5.1,1.29 -9.63,4.64 -13.25,8.36 -4.24,4.35 -8.59,8.58 -12.86,12.89zm-2.7 -104.3c-0.03,0.37 -0.07,0.73 -0.07,1.08 -0.03,9.74 -0.67,17.81 3.69,26.89 1.82,3.79 4.54,7.38 8.17,9.61 3.69,2.27 7.75,2.77 11.94,1.71 10.97,-2.78 15.14,-15.46 15.85,-25.51 0.32,-4.59 -0.11,-9.19 0.09,-13.78 -0.29,-0.04 -0.59,-0.08 -0.88,-0.11l-7.98 -0.73 -20.8 -0.06c-0.43,0.05 -0.81,0.05 -1.24,0.06l-8.78 0.83z"/>
  </g>
 </g>
</svg>
